<?xml version="1.0" encoding="UTF-8"?>
<svg xmlns="http://www.w3.org/2000/svg" id="图层_1" data-name="图层 1" viewBox="0 0 168.66 22.3">
  <defs>
    <style>.cls-1{fill:#7f7f7f;}</style>
  </defs>
  <path class="cls-1" d="M1.16,8.27.77,7.86l.49-.05a3.64,3.64,0,0,1,1.57.41A3.82,3.82,0,0,1,4.18,9.38a2.51,2.51,0,0,1,.51,1.49,1.91,1.91,0,0,1,0,.4A11,11,0,0,0,5.9,10.19,13.32,13.32,0,0,1,7.39,8.91l0,.52a7.4,7.4,0,0,0,.2,1.25A5.13,5.13,0,0,1,6.68,13a25.92,25.92,0,0,1-2,2.48c-.49.54-.86,1-1.11,1.27a.87.87,0,0,1-.53.18,1,1,0,0,1-.7-.3,4.07,4.07,0,0,1-.7-1A5.87,5.87,0,0,0,1.23,15,10.5,10.5,0,0,0,1.9,11c0-.62,0-1.24-.08-1.84a.91.91,0,0,0-.19-.41A6.5,6.5,0,0,0,1.16,8.27ZM7.88,6.21a.84.84,0,0,0,.5.17,1,1,0,0,0,.52-.14,8.72,8.72,0,0,0,.82-.59l.35-.28A2,2,0,0,1,10.68,5a8.3,8.3,0,0,1,.39,2.18A1.62,1.62,0,0,1,9.75,9,1.21,1.21,0,0,1,9,8.63a6.5,6.5,0,0,1-.71-1.07,5,5,0,0,0-.89-1.25A.92.92,0,0,1,7.88,6.21ZM15.3,4.08a.45.45,0,0,1,.36-.25c.36.2.62.33.76.39A5.79,5.79,0,0,1,18.26,5.5c-.13.21-.41.73-.85,1.55l-.23.44-.49.91c-.83,1.66-1.53,2.93-2.08,3.8a4.5,4.5,0,0,1,1.37.2,18.32,18.32,0,0,1,1.89.71c.75.31,1.32.53,1.7.66a2.38,2.38,0,0,1,1.5,1.28,4.85,4.85,0,0,1,.51,2.28.76.76,0,0,1-.86.69,1.75,1.75,0,0,1-1-.35c-.61-.7-1.62-1.75-3.05-3.14-1.21-1.21-1.88-1.9-2-2.06a1,1,0,0,0-.48.18,1.06,1.06,0,0,0-.28.48,2.12,2.12,0,0,1-.28.37q-.2.2-.21.15a3.89,3.89,0,0,1-1.48,1,5.52,5.52,0,0,1-2,.33,7.67,7.67,0,0,1-1.37-.12,10.81,10.81,0,0,1,1.27-1c.43-.28.75-.5,1-.68a4.42,4.42,0,0,0,.63-.6A16.06,16.06,0,0,0,13,10.11c.44-.86,1-2,1.59-3.41l.44-1,.2-.4a1.53,1.53,0,0,0,.17-.7A.85.85,0,0,0,15.3,4.08Z"></path>
  <path class="cls-1" d="M28.37,8.08A4,4,0,0,1,28.91,8a1.88,1.88,0,0,1,.92.19.65.65,0,0,1,.36.59,1.18,1.18,0,0,1-.21.53,4.83,4.83,0,0,1-.55.63,5.87,5.87,0,0,0-.59.61.85.85,0,0,0-.17.49,2.24,2.24,0,0,0-.15.81,2.42,2.42,0,0,0,.76,1.77,3.56,3.56,0,0,0,1.77,1l.05.44a1.85,1.85,0,0,1-.32,1,18.4,18.4,0,0,1,1.94.12l1.18.15,1.2.15a12.16,12.16,0,0,1,2.7.66,19.39,19.39,0,0,0,1.89.52,6.92,6.92,0,0,0,1.4.14,4,4,0,0,0,1.25-.17,4,4,0,0,1,.76-.12l.64-.09a5.35,5.35,0,0,1,.68-.06,3.65,3.65,0,0,1,1,.14c.33.09.78.25,1.37.47A8.09,8.09,0,0,1,45.92,20a1.87,1.87,0,0,1-1.06.76,7.41,7.41,0,0,1-2.06.2A9.37,9.37,0,0,1,40,20.49a8,8,0,0,1-2.47-1.22,26.57,26.57,0,0,0-4.12-1.45,15.21,15.21,0,0,0-3.78-.49,11.24,11.24,0,0,0-2.43.24.63.63,0,0,1-.54.27,1,1,0,0,1-.72-.36,1.18,1.18,0,0,1-.33-.79.8.8,0,0,1,.09-.39,19.75,19.75,0,0,0,4.05-.42,1.57,1.57,0,0,0-.73-.17,3.49,3.49,0,0,0-1.08.17,2.94,2.94,0,0,1,.71-1.18,3,3,0,0,1-1.15-1.38,4.83,4.83,0,0,1-.4-2l-.72-.27a.94.94,0,0,1-.68-.94A8.11,8.11,0,0,0,28.37,8.08ZM27.22,3.59a.74.74,0,0,0,.64.36,2.87,2.87,0,0,0,1.08-.36l.66.12c1,.18,1.56.56,1.77,1.15a2,2,0,0,1-1.72.76A2.73,2.73,0,0,1,28,5.06,1.78,1.78,0,0,1,27.22,3.59ZM31.49,9.4A14.88,14.88,0,0,0,34.41,8c1-.57,1.82-1,2.36-1.22a4.72,4.72,0,0,1,1.93-.39,4.43,4.43,0,0,1,1.35.22c.43.24.64.5.64.78s-.16.45-.48.65a2.78,2.78,0,0,1-1.11.41,5.75,5.75,0,0,1,.46,2.16,2.91,2.91,0,0,1-.73,2,.4.4,0,0,0-.1.3,2.11,2.11,0,0,0,.37.86A17.9,17.9,0,0,0,41,13.48a2.87,2.87,0,0,0,1.42-.72A1.88,1.88,0,0,0,43,11.32l.62.73a8.27,8.27,0,0,1,1,1.33,2.1,2.1,0,0,1,.3,1.08l0,.41a7.22,7.22,0,0,1-3.24.77,5.83,5.83,0,0,1-3.8-1.33A6.32,6.32,0,0,1,37.43,12a12.21,12.21,0,0,1,.07-1.35l0-1.35a4,4,0,0,0-.57.93c-.16.33-.35.8-.58,1.41a12.76,12.76,0,0,1-.74,1.64,2.71,2.71,0,0,1-2.6,1.37,4.39,4.39,0,0,1-.59,0,9.68,9.68,0,0,1,.81-1.67,10.37,10.37,0,0,0,.89-2,5.53,5.53,0,0,1-1.84-.49A1.47,1.47,0,0,1,31.49,9.4Zm2.23-5.52a1.48,1.48,0,0,0,.62.15,1.37,1.37,0,0,0,.7-.19,5.41,5.41,0,0,0,.89-.65,5.45,5.45,0,0,1,.89-.63,1.36,1.36,0,0,1,.68-.18,1.6,1.6,0,0,1,.47.08,2.11,2.11,0,0,1,.47,0,2.83,2.83,0,0,1,1.43.33,1.42,1.42,0,0,1,.7,1,1.62,1.62,0,0,1-.44.35c-.17.09-.44.22-.81.38a3.13,3.13,0,0,0-1.2.67,3.67,3.67,0,0,1-1.75.41,3.14,3.14,0,0,1-1.7-.44A2.06,2.06,0,0,1,33.72,3.88Z"></path>
  <path class="cls-1" d="M57.53,5.77a4,4,0,0,0,1.15.32A4.34,4.34,0,0,1,60,6.51,2.5,2.5,0,0,1,60.4,8a5,5,0,0,1-.1.94c-.07.31-.19.75-.37,1.32l-.15.52q1,.08,1,.9a3.82,3.82,0,0,1-.14.88c-.09.35-.14.55-.16.6,0,.32-.09.69-.17,1.1a6.67,6.67,0,0,0-.22,1.57,1.53,1.53,0,0,0,1,1.62,20.08,20.08,0,0,0,2.14.15,8.61,8.61,0,0,0,3.88-.81,3.53,3.53,0,0,0,2-2.75l.4.83a15.63,15.63,0,0,1,.79,1.77A3.92,3.92,0,0,1,70.51,18a2.93,2.93,0,0,1-.27,1.23,5.83,5.83,0,0,1-3.12,1.08,4.66,4.66,0,0,1-.93-.13q-5-.12-7.29-2.3a4.07,4.07,0,0,1-.54-2.23,14.45,14.45,0,0,1,.1-1.67,12.32,12.32,0,0,1-2.38,3.87,5.94,5.94,0,0,1-3.56,2.06A47.07,47.07,0,0,0,55.81,15a13.06,13.06,0,0,0,1.54-4.54c0-.32.11-.83.22-1.52a8.47,8.47,0,0,0,.25-1.77A3.57,3.57,0,0,0,57.53,5.77ZM54.07,2.24c1.57.31,2.35.88,2.35,1.71a1,1,0,0,1,0,.25c-.07.77-.11,1.74-.13,2.92,0,1.42-.08,2.69-.19,3.8a13.48,13.48,0,0,1-.64,3,.76.76,0,0,1-.69.54.93.93,0,0,1-.6-.26,1.78,1.78,0,0,1-.48-.65,1.14,1.14,0,0,1-.09-.71,14.55,14.55,0,0,0,.78-3.33c.11-1,.2-2.45.25-4.25,0-.6,0-1,0-1.18l0-.32a1.51,1.51,0,0,0-.12-.61C54.47,2.94,54.31,2.65,54.07,2.24Zm2.84-.08A23.37,23.37,0,0,0,61.45.81,3.89,3.89,0,0,1,64,2.08a4.15,4.15,0,0,1,.76,2.61,17.56,17.56,0,0,1-.2,2.41l-.64,3.5c-.31,1.51-.51,2.62-.61,3.34l0,.27a3.8,3.8,0,0,0,.1.79,1.18,1.18,0,0,1-.86.36,1.64,1.64,0,0,1-1.18-.58,2,2,0,0,1-.61-1.21,26.47,26.47,0,0,0,.59-3.8c.11-1.32.17-2.84.17-4.54l0-2.33a5.91,5.91,0,0,0-1.35.22,10.66,10.66,0,0,1-1.62.22,1.71,1.71,0,0,1-1-.27A1.47,1.47,0,0,1,56.91,2.16Z"></path>
  <path class="cls-1" d="M78.14.32a1.46,1.46,0,0,1,.59-.1,3,3,0,0,1,.84.12l.48.11.24.06.47.11a1.93,1.93,0,0,1,.83,1,5.05,5.05,0,0,1,.23,1.62l0,1.3a3.87,3.87,0,0,0,.64.51,2.54,2.54,0,0,1,.64.52.91.91,0,0,1,.17.56,1.86,1.86,0,0,1-.57.79,6.67,6.67,0,0,1-1,.61,1.46,1.46,0,0,0-.56.35l-.2.34a2.89,2.89,0,0,0-.22.42,7.18,7.18,0,0,1,1.79-.25c1.18,0,1.85.42,2,1.25a1.94,1.94,0,0,1-.72.39,5.4,5.4,0,0,1-1.07.2,6.6,6.6,0,0,0-1.21.25,2.31,2.31,0,0,0-.8.46,1.28,1.28,0,0,0,.5.62,1.77,1.77,0,0,0,.83.17l.78,0a2.59,2.59,0,0,1,.93.15,1.34,1.34,0,0,1,.23.66c0,.4-.26.67-.77.81a5,5,0,0,1-1.64.25.46.46,0,0,0-.2.27,1.41,1.41,0,0,0,0,.44v.37a1.41,1.41,0,0,1,0,.39,33.05,33.05,0,0,0,8.63,3.39,6.46,6.46,0,0,0,2.51.41c.54,0,.89,0,1.05,0l1,0a7.5,7.5,0,0,1,2,.23c.21.14.32.29.32.44s-.11.29-.32.44a6,6,0,0,0-1,.23c-.3.11-.78.31-1.45.6s-1.11.49-1.5.63a5.05,5.05,0,0,1-1.2.26,13.53,13.53,0,0,1-3.19-.76,19.07,19.07,0,0,1-2.85-1.38c-.85-.49-1.92-1.17-3.22-2l-1.84-1.21a3.53,3.53,0,0,0-1.76-.83,1,1,0,0,0-.76.37,9.12,9.12,0,0,1-1.88,1.7,3.38,3.38,0,0,1-1.88.58,2.51,2.51,0,0,1-.78-.1,11.15,11.15,0,0,0,2.46-2.22,9.72,9.72,0,0,0,1.66-2.71,1.54,1.54,0,0,1,.86.46,1.25,1.25,0,0,1,.34.89l0,.24h.71a4.62,4.62,0,0,0,.51-2.25,8.07,8.07,0,0,0-.07-1.11,8.84,8.84,0,0,0-2.33.81,12.56,12.56,0,0,1-1.62.65,4.21,4.21,0,0,1-1.18.19,2.66,2.66,0,0,1-1.89-.81l.15-.25a4.84,4.84,0,0,0,1.72-.31,21,21,0,0,0,2.26-1,20.51,20.51,0,0,1,2.18-1,1.68,1.68,0,0,0,.27-.8.76.76,0,0,0-.28-.62,4.31,4.31,0,0,0-1.09-.51,6.35,6.35,0,0,1-.93-.41,1.75,1.75,0,0,1-.5-.43,7.69,7.69,0,0,0,2.8-1.32A5.7,5.7,0,0,1,79,4l0-1.08a5.28,5.28,0,0,0-.19-1.58A2,2,0,0,0,78.14.32Zm7.31,4.4.74.09a15.65,15.65,0,0,0,1.47-.66,11.46,11.46,0,0,1,1.52-.71,3.45,3.45,0,0,1,1.13-.2,2.69,2.69,0,0,1,.86.15.53.53,0,0,1,.19,0,1,1,0,0,1,.74.31,1.28,1.28,0,0,1,.42.91.93.93,0,0,1-.2.54A9.84,9.84,0,0,0,92,6.85a9,9,0,0,1-.59,2.42,2.69,2.69,0,0,1-1.27,1.29l.56,0a4.63,4.63,0,0,1,1.57.35,1.24,1.24,0,0,1,.64.93,4.21,4.21,0,0,1-.49,1,3.89,3.89,0,0,0-.39.63,1.06,1.06,0,0,0-.1.48,1.11,1.11,0,0,0,.24.68,2.09,2.09,0,0,1-1.39.45,5.49,5.49,0,0,1-1-.1l-.58-.13a6.62,6.62,0,0,0-1.47-.22,1.46,1.46,0,0,1-.73,1.45,1.51,1.51,0,0,1-.78-.75A4.33,4.33,0,0,1,86,13.89a7,7,0,0,0-.19-1.32,1.31,1.31,0,0,0-.5-.69v-.29a2.58,2.58,0,0,1,1.26.71,5.19,5.19,0,0,1,1,1.47,1.29,1.29,0,0,0,.34,0,2.09,2.09,0,0,0,1.3-.39,1.32,1.32,0,0,0,.52-1.1.9.9,0,0,0-.67-.22,2.48,2.48,0,0,0-.61.07l-.59,0a.72.72,0,0,1-.78-.61,1.72,1.72,0,0,1,.62-.41,8.44,8.44,0,0,1,1-.28,3.93,3.93,0,0,0,1.13-.34,4.06,4.06,0,0,1-1.32-1.45,4.85,4.85,0,0,1-.73.64c-.25.18-.64.41-1.16.71s-.9.5-1.17.67a4.29,4.29,0,0,0-.75.6,17.71,17.71,0,0,1,1.18-2.4,20.55,20.55,0,0,0,1-2,5.86,5.86,0,0,0,.44-1.55,1,1,0,0,1-.24,0,1.66,1.66,0,0,1-.93-.28A2.37,2.37,0,0,1,85.45,4.72Zm3.34.71.44.44c-.15,1-.29,1.86-.44,2.48a2.53,2.53,0,0,0,.73-1.23,8.35,8.35,0,0,0,.18-2,1.44,1.44,0,0,0-.56.14Z"></path>
  <path class="cls-1" d="M103.36.3c.1,0,.4.09.89.17a6.33,6.33,0,0,1,1.33.33,1.32,1.32,0,0,1,.68.68,3.34,3.34,0,0,1,.37,1.64,7.47,7.47,0,0,1-.1,1.2l-.12.81.33.26a5.47,5.47,0,0,1,.55.54,1.1,1.1,0,0,1,.29.77l-1.32.42A3.63,3.63,0,0,1,106,8.45l.81.12a4.21,4.21,0,0,1,1.08.17.68.68,0,0,1,.39.56,1,1,0,0,1-.24.59,16.33,16.33,0,0,1-2.9.74l.42.86.61-.05a9.34,9.34,0,0,1,1.57.2,1.16,1.16,0,0,1,.3.58,1,1,0,0,1-.15.42,2.54,2.54,0,0,1-.76.43,8,8,0,0,1-1.13.28,10.54,10.54,0,0,1-.15,1.94,9.34,9.34,0,0,1,1.94.42,19.66,19.66,0,0,1,2.33,1l1,.44a13.58,13.58,0,0,0,1.57.59,11.81,11.81,0,0,0,4,.71,12.11,12.11,0,0,0,3.56-.54,1.86,1.86,0,0,1,0,.42,2.86,2.86,0,0,1-.86,2,4.86,4.86,0,0,1-2.09,1.2l-.69.05a6.7,6.7,0,0,1-2.69-.54,28.92,28.92,0,0,1-3.22-1.59,3.34,3.34,0,0,1-.49-.27,12.81,12.81,0,0,0-1.78-1.23c-.63-.36-1.47-.78-2.51-1.27a30.08,30.08,0,0,1-3-1.55,2.88,2.88,0,0,1-.6,1.48A4,4,0,0,1,101,17.72a3.32,3.32,0,0,1-1.59.42,2.51,2.51,0,0,1-1.16-.25,8.49,8.49,0,0,0,1.85-1.57,10.75,10.75,0,0,0,1.44-2.12,3.39,3.39,0,0,0,.47-1.8,2.11,2.11,0,0,1,1,.51,1.15,1.15,0,0,1,.38.84,1.52,1.52,0,0,1-.12.51q.44,0,.54.15a4.46,4.46,0,0,0,.44-2.14l0-1.2a16.27,16.27,0,0,0-3.6,1.33,1.54,1.54,0,0,1-1.11.44,1.88,1.88,0,0,1-.94-.26,2,2,0,0,1-.73-.68,41,41,0,0,0,6-2.6,8.46,8.46,0,0,0-.13-1.59,2.63,2.63,0,0,1-1.13.24,1.69,1.69,0,0,1-1.64-1A6.26,6.26,0,0,0,104,5.23l0-1.18,0-1.15a5.77,5.77,0,0,0-.16-1.46A3.31,3.31,0,0,0,103.36.3ZM109.77,2l1.91.44.17.76a10.11,10.11,0,0,0,.81,2.7,1.79,1.79,0,0,1,1-.27,1.61,1.61,0,0,1,1,.31.89.89,0,0,1,.42.75,1.4,1.4,0,0,1-.49,1h-.44a3,3,0,0,1,.84.91,2.1,2.1,0,0,1,.33,1.1,1.5,1.5,0,0,1-.17.74,1.44,1.44,0,0,0-.1.56,2.09,2.09,0,0,0,.21.91A7,7,0,0,0,116,13a4.65,4.65,0,0,1,.37.52l.22-.69a7.91,7.91,0,0,1,.31-.94,1.83,1.83,0,0,1,.33-.55,4.38,4.38,0,0,0,.11.94c.07.32.2.78.38,1.39s.31,1,.39,1.36a4.2,4.2,0,0,1,.13,1,3.3,3.3,0,0,1-.15,1,3.76,3.76,0,0,1-1.82-1,18.31,18.31,0,0,1-1.94-2.34l-.32-.47a.42.42,0,0,0-.44-.37A1.44,1.44,0,0,0,113,13a3.21,3.21,0,0,1-.46.2,1.67,1.67,0,0,0,.62-1.3,2.71,2.71,0,0,0-.16-.86,11.7,11.7,0,0,0-.58-1.23,7.31,7.31,0,0,1-.64-1.39,8,8,0,0,1-.83-.08,5.58,5.58,0,0,0-.91-.1,3.19,3.19,0,0,1,.19,1.13,6.24,6.24,0,0,1-.17,1.43,8.9,8.9,0,0,0-.14,1.39,6.21,6.21,0,0,1,1-1l.29-.26q.18-.17.33-.33c-.09,1.16-.15,1.87-.2,2.13a3.35,3.35,0,0,1-.54,1.46,2.19,2.19,0,0,1-1.25.9,2.1,2.1,0,0,1-1-2,13.72,13.72,0,0,1,.2-1.72,9,9,0,0,0,.22-1.77,2.4,2.4,0,0,0-1-2.11,4.24,4.24,0,0,1,1.1-.12,5.73,5.73,0,0,0,1.48-.22,1.55,1.55,0,0,0,.78-.66c-.18-.45-.43-1.22-.76-2.34a1,1,0,0,1-.07-.24c0-.13-.09-.34-.18-.64C110.05,2.79,109.9,2.35,109.77,2ZM114,7.56l-.71.15.3.83A10,10,0,0,0,114,9.6a2,2,0,0,0,.2-.88A6.7,6.7,0,0,0,114,7.56Zm-.54-5.22.67,0c.59.05,1.13.12,1.62.2a2.46,2.46,0,0,1,1.15.54,1.41,1.41,0,0,1,.44,1.1,1.13,1.13,0,0,1-.81.3,2.85,2.85,0,0,1-1.67-.71A6,6,0,0,1,113.42,2.34Z"></path>
  <path class="cls-1" d="M131.68-.17l.88.44A9.36,9.36,0,0,1,134,1a3.29,3.29,0,0,1,.84.9l.05.37a3.65,3.65,0,0,1-.27,1.15q0,.08-.15.48a2.73,2.73,0,0,0-.12.77,6,6,0,0,1,1.31.59,1.37,1.37,0,0,1,.56.78.91.91,0,0,1-.37.59,3.94,3.94,0,0,1-.91.47,5.86,5.86,0,0,0-.59.27,4.19,4.19,0,0,0-.24,1A4.48,4.48,0,0,1,134,9l.46,0a11.13,11.13,0,0,0,1.5-.13l.91-.14a14.11,14.11,0,0,1,2.35-.27l.74,0a1.63,1.63,0,0,1,1.2.48,5.12,5.12,0,0,1,1,1.44,3.37,3.37,0,0,1-1.91.56,7,7,0,0,1-1.7-.27c-1.14,0-2.05,0-2.71.06a11.43,11.43,0,0,0-1.9.29,6.43,6.43,0,0,1,1.08.63l.64.52a13,13,0,0,0,1,.78,3.81,3.81,0,0,0,.9.68,11.71,11.71,0,0,0,1.34.63c.52.22.91.4,1.16.54a3.73,3.73,0,0,1,.73.49,2.89,2.89,0,0,0,.77.36l.55.18a4.17,4.17,0,0,1,1.13.39,1.51,1.51,0,0,1,.61.64,13.62,13.62,0,0,1-2.08.59c-.1,0-.33.06-.68.14s-.65.17-.89.25l-.32,0a2.37,2.37,0,0,1-1.08-.29,4.34,4.34,0,0,1-1.06-.81c-.24-.21-.47-.43-.68-.64a6.5,6.5,0,0,1-.86-.79A16.57,16.57,0,0,1,135.09,14a18,18,0,0,0-1.2-1.42l0,3.21a33.78,33.78,0,0,1-.14,3.39,16.35,16.35,0,0,1-.52,2.77.93.93,0,0,1-.29,0,2,2,0,0,1-1.5-.64,7.65,7.65,0,0,1-1.25-1.94l.39,0a1.55,1.55,0,0,0,.89-.26,1.1,1.1,0,0,0,.44-.77l0-1q.09-1.2.09-2a11.67,11.67,0,0,0-.14-1.91,9.38,9.38,0,0,1-2,3.11A3.92,3.92,0,0,1,127,17.92l-.61-.05c1.13-1.26,2-2.34,2.72-3.24a12.79,12.79,0,0,0,1.67-3,5.69,5.69,0,0,1-1.37.52c-.07,0-.26.1-.59.2a4.38,4.38,0,0,0-.83.36,2,2,0,0,1-.69.1,3.45,3.45,0,0,1-1.35-.3,9.52,9.52,0,0,1-1.62-.88v-.39c1-.23,1.88-.44,2.55-.64l1.87-.49c.68-.21,1.73-.49,3.14-.84a3.68,3.68,0,0,0-.08-.71,5.53,5.53,0,0,1-.07-.71c-1.69-.34-2.74-1-3.17-2a6.34,6.34,0,0,0,3.32-1.08l0-1.79A17.37,17.37,0,0,0,131.68-.17Z"></path>
  <path class="cls-1" d="M155.68,5.77a4.15,4.15,0,0,0,1.15.32,4.24,4.24,0,0,1,1.28.42A2.5,2.5,0,0,1,158.55,8a4.29,4.29,0,0,1-.1.94,11.12,11.12,0,0,1-.37,1.32l-.14.52c.65.05,1,.35,1,.9a3.82,3.82,0,0,1-.14.88c-.09.35-.14.55-.16.6,0,.32-.09.69-.17,1.1a7.25,7.25,0,0,0-.22,1.57,1.53,1.53,0,0,0,1,1.62,19.75,19.75,0,0,0,2.13.15,8.58,8.58,0,0,0,3.88-.81,3.56,3.56,0,0,0,2-2.75l.39.83a16,16,0,0,1,.8,1.77,4.16,4.16,0,0,1,.23,1.35,2.93,2.93,0,0,1-.27,1.23,5.81,5.81,0,0,1-3.12,1.08,4.66,4.66,0,0,1-.93-.13q-5-.12-7.29-2.3a4.07,4.07,0,0,1-.54-2.23c0-.51,0-1.07.1-1.67a12.14,12.14,0,0,1-2.38,3.87,5.92,5.92,0,0,1-3.56,2.06A45.53,45.53,0,0,0,154,15a13.07,13.07,0,0,0,1.55-4.54c0-.32.1-.83.22-1.52A9,9,0,0,0,156,7.19,3.41,3.41,0,0,0,155.68,5.77Zm-3.46-3.53c1.57.31,2.36.88,2.36,1.71a.58.58,0,0,1,0,.25c-.06.77-.1,1.74-.12,2.92,0,1.42-.08,2.69-.2,3.8a13.48,13.48,0,0,1-.64,3,.75.75,0,0,1-.68.54.89.89,0,0,1-.6-.26,1.58,1.58,0,0,1-.48-.65,1.08,1.08,0,0,1-.1-.71,14.59,14.59,0,0,0,.79-3.33c.11-1,.19-2.45.24-4.25,0-.6,0-1,0-1.18l.05-.32a1.51,1.51,0,0,0-.12-.61A8.83,8.83,0,0,0,152.22,2.24Zm2.85-.08A23.59,23.59,0,0,0,159.61.81a3.86,3.86,0,0,1,2.5,1.27,4.09,4.09,0,0,1,.76,2.61,17.56,17.56,0,0,1-.2,2.41L162,10.6c-.32,1.51-.52,2.62-.62,3.34l0,.27a3.23,3.23,0,0,0,.1.79,1.21,1.21,0,0,1-.86.36,1.63,1.63,0,0,1-1.18-.58,2,2,0,0,1-.61-1.21,28,28,0,0,0,.58-3.8c.12-1.32.18-2.84.18-4.54l0-2.33a5.91,5.91,0,0,0-1.35.22,10.66,10.66,0,0,1-1.62.22,1.73,1.73,0,0,1-1-.27A1.51,1.51,0,0,1,155.07,2.16Z"></path>
</svg>
